<svg width="12" height="9" viewBox="0 0 12 9" fill="none" xmlns="http://www.w3.org/2000/svg">
<path d="M6.00039 3.11306C7.36342 3.11306 8.46842 4.21804 8.46842 5.58107C8.46842 6.94417 7.36342 8.0491 6.00039 8.0491C4.63732 8.0491 3.53234 6.94417 3.53234 5.58107C3.53234 4.21804 4.63732 3.11306 6.00039 3.11306ZM6.00039 4.03856C5.14849 4.03856 4.45785 4.72917 4.45785 5.58107C4.45785 6.43298 5.14849 7.12359 6.00039 7.12359C6.85229 7.12359 7.54291 6.43298 7.54291 5.58107C7.54291 4.72917 6.85229 4.03856 6.00039 4.03856ZM6.00039 0.950684C8.84695 0.950684 11.3042 2.89426 11.986 5.61797C12.0481 5.86588 11.8974 6.11719 11.6495 6.17926C11.4015 6.24127 11.1503 6.09066 11.0882 5.84269C10.5089 3.52851 8.41986 1.87619 6.00039 1.87619C3.57982 1.87619 1.49011 3.52993 0.911828 5.84552C0.849905 6.09344 0.598697 6.24423 0.35074 6.18235C0.102784 6.1204 -0.0480249 5.86922 0.0138979 5.62124C0.694512 2.89593 3.15257 0.950684 6.00039 0.950684Z" fill="#B34FD1"/>
</svg>
